<?xml version="1.0" standalone="no"?>
<!DOCTYPE svg PUBLIC "-//W3C//DTD SVG 20010904//EN"
 "http://www.w3.org/TR/2001/REC-SVG-20010904/DTD/svg10.dtd">
<svg version="1.0" xmlns="http://www.w3.org/2000/svg"
 width="282.000000pt" height="353.000000pt" viewBox="0 0 282.000000 353.000000"
 preserveAspectRatio="xMidYMid meet">
<metadata>
Created by potrace 1.15, written by Peter Selinger 2001-2017
</metadata>
<g transform="translate(0.000000,353.000000) scale(0.100000,-0.100000)"
fill="#000000" stroke="none">
<path d="M17 3513 c-4 -3 -7 -563 -7 -1242 l1 -1236 29 -85 c15 -47 33 -85 38
-85 6 0 14 -4 19 -9 5 -6 2 -6 -6 -1 -11 6 -13 4 -8 -9 4 -10 7 -21 7 -24 0
-4 5 0 11 8 8 12 9 10 4 -7 -6 -22 12 -62 27 -59 3 0 17 -12 29 -29 13 -16 18
-26 11 -22 -15 10 -4 -22 15 -41 7 -7 16 -20 21 -28 5 -8 15 -16 23 -18 8 -1
40 -28 72 -60 32 -31 49 -53 39 -47 -10 5 -37 30 -60 55 -23 25 -42 42 -42 37
0 -12 140 -144 147 -138 3 4 14 -4 25 -16 11 -12 16 -15 13 -7 -4 8 3 3 16
-12 21 -23 196 -119 216 -117 5 0 -40 25 -99 55 -60 30 -108 56 -108 59 0 3
35 -12 78 -34 89 -44 184 -89 260 -121 29 -13 51 -25 48 -27 -2 -3 -18 3 -35
11 -16 9 -34 16 -38 16 -9 -1 133 -75 185 -97 19 -8 31 -9 27 -4 -3 6 -12 11
-19 11 -7 0 -21 7 -32 15 -18 14 -17 14 11 4 44 -15 127 -61 147 -81 19 -19
228 -121 234 -115 2 2 -36 23 -86 46 -87 42 -124 66 -57 37 69 -29 166 -80
162 -85 -2 -3 15 -7 36 -9 28 -2 61 8 116 33 42 19 78 33 81 30 3 -3 1 -5 -4
-5 -6 0 -19 -7 -30 -15 -10 -9 8 -4 41 11 33 14 70 30 83 35 14 5 20 14 16 21
-4 7 -3 8 4 4 7 -4 20 -2 29 4 17 11 17 11 0 6 -35 -11 -15 3 40 29 31 14 63
23 70 21 7 -3 63 19 125 49 62 31 103 53 91 49 -47 -11 -21 5 56 36 44 17 84
29 89 26 15 -9 174 72 201 102 13 15 20 20 16 12 -3 -8 2 -6 12 5 10 11 25 21
33 23 8 1 55 43 104 93 69 70 86 93 75 100 -11 7 -9 9 9 9 12 0 23 7 23 15 1
8 3 20 4 25 1 6 3 14 4 20 0 5 15 23 31 40 30 31 41 57 18 44 -8 -4 -10 -3 -5
2 5 5 14 9 20 9 7 0 28 38 47 85 l35 85 0 1255 0 1255 -1391 3 c-765 1 -1394
-1 -1397 -5z m2751 -1198 c2 -818 0 -1188 -8 -1230 -16 -88 -44 -165 -97 -263
-61 -114 -138 -209 -241 -294 -87 -73 -83 -71 -482 -247 -102 -45 -212 -96
-245 -113 -33 -16 -115 -54 -182 -84 -115 -50 -124 -52 -150 -39 -54 27 -385
185 -388 185 -3 0 -57 25 -122 56 -65 31 -175 82 -244 114 -152 68 -263 155
-362 283 -104 132 -155 241 -186 395 -12 58 -16 2393 -4 2405 3 4 614 6 1357
4 l1351 -2 3 -1170z"/>
<path d="M172 3264 l3 -125 165 0 165 0 3 125 3 126 -171 0 -171 0 3 -126z"/>
<path d="M600 3265 l0 -125 160 0 160 0 0 125 0 125 -160 0 -160 0 0 -125z"/>
<path d="M1882 3268 l3 -123 168 -3 167 -2 0 125 0 125 -170 0 -171 0 3 -122z"/>
<path d="M2320 3265 l0 -125 165 0 165 0 0 125 0 125 -165 0 -165 0 0 -125z"/>
<path d="M176 3043 c-3 -4 -6 -60 -6 -125 l0 -118 170 0 171 0 -3 123 -3 122
-162 2 c-88 1 -164 -1 -167 -4z"/>
<path d="M607 3044 c-4 -4 -7 -61 -7 -126 l0 -118 160 0 160 0 0 124 0 124
-153 1 c-84 1 -156 -1 -160 -5z"/>
<path d="M1886 3043 c-3 -4 -6 -60 -6 -125 l0 -118 170 0 171 0 -3 123 -3 122
-162 2 c-88 1 -164 -1 -167 -4z"/>
<path d="M2320 2925 l0 -125 165 0 165 0 0 124 0 125 -165 0 -165 0 0 -124z"/>
<path d="M174 2697 c-7 -20 0 -237 9 -237 4 0 79 0 167 0 l161 0 -3 123 -3
122 -163 3 c-128 2 -164 0 -168 -11z"/>
<path d="M600 2585 l0 -125 165 0 165 0 0 125 0 125 -165 0 -165 0 0 -125z"/>
<path d="M1037 2703 c-4 -3 -7 -60 -7 -125 l0 -118 160 0 160 0 0 125 0 125
-153 0 c-85 0 -157 -3 -160 -7z"/>
<path d="M1450 2585 l0 -125 165 0 165 0 0 125 0 125 -165 0 -165 0 0 -125z"/>
<path d="M1884 2697 c-7 -20 0 -237 9 -237 4 0 79 0 167 0 l161 0 -3 123 -3
122 -163 3 c-128 2 -164 0 -168 -11z"/>
<path d="M2320 2585 l0 -125 165 0 165 0 0 125 0 125 -165 0 -165 0 0 -125z"/>
<path d="M170 1117 c0 -57 24 -163 42 -184 8 -10 44 -13 152 -11 l141 3 3 123
3 122 -171 0 -170 0 0 -53z"/>
<path d="M600 1045 l0 -125 159 0 160 0 3 125 3 125 -162 0 -163 0 0 -125z"/>
<path d="M1028 1045 l3 -126 157 3 157 3 3 123 3 122 -163 0 -163 0 3 -125z"/>
<path d="M1450 1045 l0 -125 165 0 165 0 0 125 0 125 -165 0 -165 0 0 -125z"/>
<path d="M1882 1048 l3 -123 165 0 165 0 3 123 3 122 -171 0 -171 0 3 -122z"/>
<path d="M2320 1045 l0 -126 147 3 146 3 18 50 c10 29 18 81 18 123 l1 72
-165 0 -165 0 0 -125z"/>
<path d="M260 804 c0 -12 45 -70 109 -143 65 -74 117 -115 133 -105 4 3 8 61
8 130 l0 124 -125 0 c-69 0 -125 -3 -125 -6z"/>
<path d="M602 653 l3 -156 30 -18 c105 -62 166 -94 210 -109 28 -9 57 -20 65
-24 13 -5 15 23 12 229 l-3 235 -160 0 -160 0 3 -157z"/>
<path d="M1030 551 l0 -260 58 -26 c31 -15 95 -42 142 -60 47 -18 93 -36 103
-40 16 -7 17 12 17 319 l0 326 -160 0 -160 0 0 -259z"/>
<path d="M1460 479 c0 -182 3 -329 8 -327 15 8 238 115 275 132 l37 18 0 254
0 254 -160 0 -160 0 0 -331z"/>
<path d="M1880 592 c0 -120 2 -221 5 -224 11 -11 153 40 244 87 l91 47 0 154
0 154 -170 0 -170 0 0 -218z"/>
<path d="M2320 680 c0 -71 4 -130 9 -130 15 0 93 69 139 123 37 43 82 115 82
132 0 3 -52 5 -115 5 l-115 0 0 -130z"/>
</g>
</svg>
